<svg width="17" height="24" viewBox="0 0 17 24" fill="none" xmlns="http://www.w3.org/2000/svg">
<path fill-rule="evenodd" clip-rule="evenodd" d="M5.14067 2.61449C5.10554 2.61492 5.04013 2.62206 4.93336 2.65373L4.92484 2.65626C4.13291 2.88346 3.54841 3.24441 3.09476 3.88437L3.08869 3.89293L3.08245 3.90135C2.54637 4.62456 2.31959 5.55581 2.39069 6.56332L2.39081 6.56492C2.43326 7.18035 2.51931 7.85115 2.69637 8.49833C3.9213 12.7134 5.95083 16.4385 8.76141 19.6415C9.33835 20.2916 10.0795 20.866 10.8394 21.3114L10.8445 21.3144C11.8781 21.9285 13.4047 21.666 14.3761 20.6073L14.3835 20.5992C14.6271 20.3396 14.6243 20.2256 14.6233 20.1966C14.621 20.1323 14.5807 19.915 14.2095 19.4756C13.9325 19.1585 13.6387 18.8598 13.3201 18.5365L13.3108 18.527C13.0033 18.2148 12.6721 17.8787 12.3532 17.5141C11.9644 17.0977 11.6787 16.9158 11.4573 16.85C11.2755 16.7958 11.027 16.7863 10.614 16.9932C10.2618 17.1746 9.87502 17.3026 9.45948 17.2979C9.02193 17.2929 8.64774 17.142 8.33655 16.9223C8.04511 16.7164 7.80807 16.4497 7.61105 16.1985C7.41949 15.9541 7.22398 15.6688 7.0301 15.3859L7.00462 15.3487L7.00024 15.3421C6.26079 14.2263 5.83381 13.3409 5.57196 12.798C5.53857 12.7287 5.50786 12.6651 5.47953 12.6072C5.08225 11.8269 4.70755 11.0364 4.67256 10.2531C4.63201 9.34513 5.03569 8.62791 5.69284 7.97715C5.80785 7.85473 5.95195 7.63612 6.06069 7.37611C6.17145 7.1113 6.19985 6.91348 6.19549 6.82266C6.0844 5.93002 5.85455 5.11159 5.6054 4.22442C5.48561 3.79786 5.36135 3.3554 5.24368 2.88116C5.20362 2.72825 5.16365 2.65015 5.14067 2.61449ZM6.14134 0.878538C6.724 1.22424 7.023 1.81466 7.17432 2.39804L7.17708 2.40869C7.26357 2.7576 7.36833 3.13209 7.47806 3.5241C7.74841 4.48993 8.04857 5.56225 8.17777 6.62136L8.17986 6.63849L8.18136 6.65567C8.22829 7.19194 8.08055 7.73835 7.90019 8.16959C7.71528 8.6117 7.44493 9.05475 7.12623 9.3863L7.11682 9.39609L7.10715 9.40561C6.68115 9.82502 6.6581 10.0318 6.66487 10.1833C6.67734 10.4626 6.82742 10.8724 7.25623 11.7142L7.25978 11.7212L7.26323 11.7282C7.29524 11.7936 7.32896 11.8634 7.36483 11.9377C7.62365 12.4737 7.995 13.2427 8.65199 14.235C8.86273 14.5425 9.02379 14.7771 9.17227 14.9664C9.32329 15.159 9.4173 15.2464 9.47162 15.2848C9.47432 15.2867 9.47672 15.2883 9.47884 15.2898C9.50863 15.2839 9.57663 15.2651 9.69349 15.2047L9.70323 15.1996C10.4685 14.8146 11.2397 14.6993 12.0054 14.9272C12.7304 15.143 13.3174 15.629 13.8142 16.1637L13.8251 16.1753L13.8355 16.1874C14.114 16.5066 14.4093 16.8069 14.7298 17.1321L14.7391 17.1416C15.0502 17.4574 15.3855 17.7977 15.7078 18.1673L15.7126 18.1727L15.7173 18.1782C16.2146 18.7651 16.5907 19.4162 16.6163 20.1459C16.6432 20.909 16.2816 21.5123 15.8444 21.9795C14.3579 23.5959 11.83 24.2171 9.8458 23.0402C8.94028 22.5092 8.02217 21.8061 7.27733 20.9661L7.27387 20.9622C4.25873 17.5267 2.08599 13.5321 0.780324 9.03523L0.778267 9.02814L0.776313 9.02103C0.549989 8.19699 0.449278 7.3794 0.401281 6.68356C0.303854 5.29872 0.606957 3.87381 1.47298 2.70063C2.23764 1.62633 3.23774 1.0497 4.35578 0.728236C4.90523 0.566055 5.55238 0.529105 6.14134 0.878538Z" fill="#141517"/>
</svg>
