<svg width="1444" height="1089" viewBox="0 0 1444 1089" fill="none" xmlns="http://www.w3.org/2000/svg">
<path d="M556.849 6.00429C559.124 9.31694 563.262 15.5282 566.158 20.0831L571.329 28.1577L564.71 33.7478C557.056 40.1661 556.642 41.2013 562.227 42.6506C564.503 43.2717 566.364 45.3421 566.364 47.2055C566.364 54.2449 592.222 83.8519 607.736 94.618L612.908 98.3448L605.668 96.8955C597.393 95.2392 583.741 88.6138 581.879 85.5082C580.017 82.4026 566.571 75.9843 558.297 74.1209L551.471 72.6716L552.091 84.473C552.712 93.5828 552.091 96.8955 549.609 98.5518C544.851 101.657 531.819 98.5518 530.578 93.9969C528.923 87.7857 502.652 84.8871 495.205 90.2702C491.895 92.7547 491.895 94.2039 493.964 106.212C498.515 131.057 491.895 155.074 479.69 157.973C472.037 159.836 472.243 163.149 480.518 169.567C487.137 174.536 487.965 176.192 486.93 181.575C484.862 191.513 475.76 201.451 463.762 206.834L452.592 211.804V223.605C452.592 230.23 451.144 241.825 449.075 249.278C445.765 262.736 445.765 263.15 450.316 276.193C462.521 309.734 461.694 306.214 457.143 313.461L453.005 320.086L459.004 332.716C462.314 339.755 465.003 348.658 465.003 352.385C465.003 364.186 472.243 369.569 506.168 382.82C522.717 389.445 536.577 394.828 536.784 395.035C537.197 395.242 534.508 400.625 530.992 407.044C523.545 420.915 512.995 449.28 510.512 461.91C508.444 473.504 510.099 474.125 532.026 469.777C555.401 465.222 570.502 465.015 572.984 469.156C574.225 471.434 576.501 472.262 580.431 471.434C584.361 470.605 590.981 472.883 603.392 479.094L620.769 487.79L640.627 484.27C651.591 482.2 670.208 478.473 682.206 475.574C708.477 469.57 717.165 469.363 727.715 474.746C737.437 479.715 737.851 478.68 731.852 461.288C729.577 454.456 728.336 447.21 728.956 444.311C729.784 441.413 738.679 432.096 749.642 422.572L769.087 405.801L743.643 379.507C716.751 351.349 704.754 334.372 704.547 323.399C704.34 318.016 705.788 315.324 711.58 310.355C721.302 302.074 764.329 279.506 781.498 274.123C798.461 268.533 809.424 261.286 813.769 252.798C818.113 244.516 816.871 230.023 809.424 199.381C802.598 170.809 796.806 156.73 787.911 147L780.671 138.925L784.394 129.401C793.289 105.798 792.669 89.0279 782.326 68.5308C776.741 57.3506 771.155 53.6238 763.088 55.0731C759.571 55.9013 755.434 54.8661 752.124 52.7956C728.129 36.4393 726.888 36.0253 721.716 37.2675C712.407 39.3379 683.654 55.0731 675.379 62.5266C668.346 68.9449 666.898 69.359 658.21 68.1167C639.593 65.6322 635.249 58.1787 648.074 50.5182C660.692 43.0647 657.796 40.9943 631.732 39.3379C621.803 38.5098 616.631 37.2675 614.77 34.9901C613.528 33.1267 609.598 31.6774 606.288 31.6774C597.6 31.6774 596.359 29.3999 602.565 24.638C612.701 16.5634 603.599 9.52397 576.501 4.762C569.261 3.51977 560.986 1.86342 558.09 1.24233L553.125 4.15595e-05L556.849 6.00429Z" fill="#FBF8F8"/>
<path d="M436.838 108.523C425.456 111.221 420.696 119.522 421.937 134.051C422.144 136.126 425.042 140.069 428.353 142.975C435.183 148.786 441.598 163.107 439.943 168.918C437.666 175.975 426.697 183.239 418.419 183.239C406.623 183.239 402.897 177.843 402.07 159.786C401.656 151.484 401.035 143.598 400.621 142.352C398.965 137.164 393.791 142.145 391.515 150.654C390.48 155.635 383.857 170.786 377.028 184.692L364.61 210.012L381.581 213.54L398.344 217.276L384.271 223.918C376.407 227.654 369.784 230.974 369.37 231.389C369.163 231.804 375.165 231.804 383.236 231.389C396.896 230.559 398.137 230.767 411.59 239.069C419.247 243.635 428.56 248.616 432.492 249.861C438.908 252.144 439.943 251.936 443.668 247.37C446.979 243.219 447.393 240.521 446.358 230.974C443.668 208.559 443.254 210.22 453.809 206.069C467.054 201.088 474.711 195.277 479.265 186.56L483.197 179.088L476.574 172.239C468.503 163.937 468.503 162.484 475.332 156.05C483.404 148.786 492.717 133.428 492.717 127.617C492.717 120.975 482.783 111.428 472.849 108.73C463.536 106.24 447.393 106.032 436.838 108.523Z" fill="#FBF8F8"/>
<path d="M370.72 243.561C351.912 251.271 351.499 251.271 331.245 247.312C318.017 244.811 302.31 257.939 303.963 270.025C304.583 274.192 305.617 274.609 315.33 273.984C325.871 273.567 326.284 273.567 330.211 281.277C335.172 291.071 338.892 294.613 352.533 301.49C364.933 307.741 370.72 315.034 369.273 322.536C368.653 325.453 368.86 328.37 369.893 328.995C372.167 330.246 379.194 326.703 386.841 320.244C393.868 314.201 396.555 313.992 396.555 318.993C396.555 326.495 407.302 344.624 414.743 349.625C428.797 359.21 437.064 355.042 435.204 339.831C433.55 328.579 437.684 316.076 442.644 316.493C448.225 317.118 452.978 308.366 451.325 300.865C449.671 293.155 441.404 283.986 436.237 283.986C430.657 283.986 428.177 280.444 426.523 269.4C424.663 258.147 421.356 253.771 408.749 247.52C403.582 244.811 398.208 241.06 396.762 239.393C393.041 235.018 392.215 235.018 370.72 243.561Z" fill="#FBF8F8"/>
<path d="M275.738 270.207C265.81 275.174 262.294 279.934 262.087 288.006C261.88 310.98 248.435 328.987 219.685 344.303C202.31 353.617 201.069 354.859 200.449 361.482C199.415 372.451 197.14 373.693 179.558 373.693C158.461 373.693 143.362 369.554 137.777 362.517C135.502 359.412 129.917 355.065 125.367 352.996C116.059 348.235 115.438 349.27 120.402 363.137C122.057 368.105 124.953 380.109 126.608 389.837C128.469 399.772 130.538 409.499 130.951 411.362C131.985 414.467 130.744 415.088 123.091 415.088C113.784 415.088 92.6861 417.985 84.8262 420.469C81.31 421.504 78.0006 419.434 69.1065 411.155C57.1099 399.772 55.0415 398.944 50.9047 403.911C46.1474 409.706 36.0124 413.639 20.2926 415.295C11.1917 416.329 3.53872 418.399 1.67718 420.262C-1.21856 423.16 -0.804882 423.987 6.43446 429.99C14.2943 436.406 14.2943 436.613 13.2601 448.617L12.2259 460.622H19.0516C22.7747 460.622 33.7371 463.933 43.2517 468.073C52.5594 472.212 67.0381 477.18 74.898 479.042C88.3425 482.354 89.3767 482.975 89.3767 488.356C89.5835 492.289 92.2724 496.428 98.2707 502.016C105.096 508.432 106.958 511.537 106.958 517.125C106.958 527.888 116.886 540.927 134.261 552.932L149.36 563.28L148.739 577.768C146.671 627.028 139.225 679.392 129.917 708.989C124.539 726.168 124.539 726.996 130.744 728.445C134.467 729.48 135.915 731.135 135.915 734.861C135.915 746.037 162.184 754.523 196.519 754.523C234.164 754.523 254.847 759.077 268.085 770.253C276.152 776.876 288.769 778.739 300.352 774.807C309.039 771.909 312.349 767.356 315.865 753.074C318.554 742.312 328.068 732.584 344.822 723.684C362.403 714.164 371.711 714.784 408.942 726.789C425.489 732.17 441.416 736.931 444.311 737.345C451.344 738.586 458.583 734.861 476.371 719.959C484.438 713.336 493.953 706.299 497.469 704.436C503.674 701.124 512.361 689.741 512.361 685.187C512.361 683.739 509.466 683.325 505.329 683.739C499.951 684.359 496.848 683.118 490.85 677.736C480.715 669.043 477.199 661.592 477.199 649.588C476.992 644.207 475.751 637.377 474.096 634.479C469.546 626.614 470.373 624.751 479.474 618.542C488.782 612.333 488.782 612.333 481.129 592.463C477.406 582.529 476.992 579.424 478.853 576.32C482.37 570.731 481.956 566.178 476.785 558.52C470.787 549.827 466.65 550.034 452.378 558.934C446.173 562.659 440.795 565.557 440.382 565.35C440.175 564.936 441.829 561.418 444.105 557.278C447 552.518 448.035 548.171 447.207 544.86C446.173 540.72 447.207 538.65 452.999 534.304C456.929 531.199 460.859 526.439 461.479 523.748C462.306 520.851 467.064 513.814 472.235 508.018C477.199 502.223 481.956 494.979 482.783 491.668C483.404 487.528 485.679 485.045 489.609 483.596C496.642 481.319 499.744 475.731 506.777 452.964C509.879 443.857 514.637 430.197 517.532 422.953C524.978 405.567 526.633 399.358 524.978 397.288C524.358 396.253 518.153 393.355 511.327 391.079C504.501 388.595 487.748 381.972 473.889 376.177C460.238 370.588 443.484 364.586 436.658 363.137C428.178 361.275 419.491 356.928 407.908 349.063C389.499 336.645 380.605 332.298 372.952 332.298C366.747 332.298 364.885 329.815 363.438 318.845C362.403 311.187 361.99 310.566 353.716 309.118C342.133 307.255 333.446 300.425 328.068 289.455L323.725 280.555L313.59 281.797L303.248 283.246L299.938 274.553C297.042 267.102 295.801 266.067 290.217 266.067C286.701 266.274 280.289 267.93 275.738 270.207Z" fill="#FBF8F8"/>
<path d="M797.195 276.382C765.951 284.836 724.983 304.834 715.465 316.174C709.051 323.596 709.672 328.957 718.155 341.121C732.018 361.532 773.4 402.767 786.849 409.571C796.16 414.313 798.643 413.488 811.886 400.912L824.3 389.16L834.025 391.84C839.405 393.489 848.509 395.963 854.095 397.613C869.614 402.149 904.789 403.798 907.685 400.087C909.134 398.231 913.686 397.2 919.479 397.2C931.48 397.2 945.136 388.747 949.481 378.439C951.757 373.284 956.103 368.955 964.793 363.594C980.518 353.904 981.139 349.368 967.69 339.884C955.068 330.812 917.41 311.638 912.444 311.638C910.168 311.638 905.823 313.906 902.306 316.793C898.995 319.679 895.271 321.947 894.236 321.947C890.512 321.947 871.683 302.773 870.441 297.825C868.786 291.845 862.165 288.341 846.026 284.629C836.922 282.361 833.611 280.712 832.163 277.001C830.715 273.084 828.852 272.465 820.576 272.671C814.989 272.671 804.644 274.321 797.195 276.382Z" fill="#FBF8F8"/>
<path d="M441.68 327.595C437.783 336.866 441.897 355.611 448.176 357.828C452.94 359.441 459.869 351.58 459.869 344.526C459.869 333.44 444.928 319.533 441.68 327.595Z" fill="#FBF8F8"/>
<path d="M995.501 361.959C989.733 366.489 988.085 366.901 984.583 364.842C982.111 363.4 977.991 362.782 974.283 363.606C966.867 365.254 954.095 376.168 954.095 380.904C954.095 388.318 929.581 405.616 918.869 405.822C913.101 405.822 904.862 414.06 903.626 421.061C901.154 434.241 913.719 453.393 930.405 461.424C938.851 465.543 940.499 465.543 956.155 463.278C972.635 461.012 978.815 457.923 978.815 451.951C978.815 448.245 985.201 445.567 997.767 443.92C1002.92 443.302 1008.48 441.243 1009.92 439.595C1011.57 437.536 1015.48 436.506 1020.84 436.712C1034.02 437.33 1034.23 437.124 1042.67 428.063C1049.27 420.855 1052.15 419.208 1060.6 418.178C1074.4 416.737 1093.76 419.208 1098.09 423.121C1103.86 428.269 1109.83 427.033 1116.22 419.208C1121.57 412.618 1134.76 383.788 1133.11 382.552C1132.7 382.14 1125.9 379.051 1117.86 375.55C1086.14 361.753 1066.16 361.341 1043.7 373.903C1027.02 383.17 1022.28 382.758 1018.57 372.049C1015.28 362.37 1010.33 356.398 1005.8 356.398C1003.95 356.398 999.415 358.87 995.501 361.959Z" fill="#FBF8F8"/>
<path d="M811.441 406.824C798.376 417.573 793.813 419.227 785.725 416.333C774.318 411.992 769.548 413.646 751.713 427.495C733.048 442.171 732.218 444.031 737.818 459.534C741.551 470.283 741.758 479.584 738.44 480.825C736.988 481.238 732.426 480.411 728.485 478.758C718.531 474.624 706.917 475.037 686.593 479.998C677.053 482.272 661.084 485.786 650.714 487.439C640.552 489.3 629.353 491.367 626.242 491.987C622.717 492.607 617.117 491.573 612.347 489.506C600.941 484.339 597.83 486.199 597.83 497.774C597.83 505.216 599.074 508.523 603.222 512.657C608.614 518.032 609.651 518.032 625.205 514.311C629.353 513.277 632.257 514.104 636.405 517.205C643.248 522.579 647.604 522.579 656.314 517.411C663.158 513.484 689.081 506.663 699.243 506.249C702.976 506.043 706.087 508.316 710.65 514.724C718.323 525.06 728.071 530.02 750.261 534.981C774.941 540.356 797.753 539.942 825.129 533.534C867.436 523.613 879.672 514.724 880.087 493.64C880.502 476.691 881.954 473.383 893.153 468.216L903.315 463.255L902.07 450.646C900.411 434.316 895.226 416.953 890.456 412.199C888.175 409.925 882.161 408.065 874.488 407.238C867.851 406.618 856.652 404.137 850.016 401.657C830.936 395.042 824.714 395.869 811.441 406.824Z" fill="#FBF8F8"/>
<path d="M1060.69 424.757C1056.15 425.791 1049.34 429.72 1043.77 434.89C1035.31 442.749 1033.24 443.576 1023.96 443.576C1018.39 443.576 1013.64 444.403 1013.64 445.437C1013.64 447.919 1002.08 451.848 995.069 451.848C989.704 451.848 982.689 457.225 982.689 461.568C982.689 466.117 969.07 469.426 950.5 469.426C933.167 469.426 931.104 469.012 923.056 463.429C918.311 460.12 914.184 457.845 913.977 458.259C913.565 458.672 911.708 461.774 909.644 464.876C907.581 468.185 902.835 472.114 898.915 473.769C893.343 476.044 891.899 477.698 892.931 480.593C893.55 482.661 892.724 485.556 890.867 487.004C889.217 488.452 886.328 494.863 884.471 501.067C879.931 516.783 881.582 532.087 889.217 542.84C896.851 554.008 920.58 569.725 941.421 577.79C956.896 583.787 958.547 584.201 963.705 581.306C981.038 571.586 988.466 569.725 1045.21 559.385C1080.08 553.181 1079.67 553.387 1085.65 531.466C1090.6 512.647 1130.63 460.12 1139.71 460.12C1147.14 460.12 1146.32 455.157 1137.44 447.298C1129.19 439.853 1113.1 433.236 1103.6 433.236C1101.33 433.236 1097.62 431.375 1095.14 429.1C1090.19 424.55 1072.65 422.275 1060.69 424.757Z" fill="#FBF8F8"/>
<path d="M1328.51 430.71C1321.7 432.159 1319.84 433.402 1320.66 435.887C1323.14 442.514 1355.78 495.74 1362.19 503.817C1370.66 514.586 1371.07 516.45 1373.76 555.593C1374.79 573.818 1376.65 589.558 1377.68 590.593C1381.19 594.114 1389.66 583.552 1400.41 562.427C1406.19 551.244 1412.6 541.303 1414.87 540.06C1416.93 539.024 1422.72 538.61 1427.68 539.232C1434.7 540.267 1437.59 539.646 1440.28 536.953C1444.82 532.397 1444.82 526.184 1440.07 524.734C1438 524.113 1433.87 518.314 1430.77 511.894C1427.47 505.474 1421.27 495.74 1416.73 490.355C1407.43 479.379 1407.02 476.479 1413.01 468.817C1418.38 461.982 1416.93 457.426 1408.67 455.769C1405.16 455.148 1401.44 452.87 1400.2 450.799C1398.75 447.899 1395.86 446.864 1390.28 446.864C1385.12 446.864 1381.81 445.828 1381.19 443.757C1379.54 439.615 1366.32 433.402 1353.31 430.502C1340.91 428.017 1340.7 428.017 1328.51 430.71Z" fill="#FBF8F8"/>
<path d="M1298.93 444.85C1291.06 451.037 1265.8 461.969 1249.45 466.301C1233.72 470.22 1232.68 470.22 1227.92 466.713C1216.75 458.875 1214.05 458.05 1205.77 459.082C1201.22 459.7 1189.63 458.669 1180.31 457.019C1170.79 455.163 1161.06 454.338 1158.58 455.163C1156.09 455.781 1149.26 460.113 1143.26 464.651C1137.26 469.188 1131.67 472.282 1130.43 471.663C1127.73 470.013 1107.03 502.396 1095.03 527.147C1083.44 550.661 1080.54 554.167 1062.53 563.036C1055.28 566.543 1049.49 569.843 1049.49 570.255C1049.49 570.462 1053.21 574.587 1057.77 579.331C1062.32 583.868 1066.05 589.231 1066.05 591.088C1066.05 597.894 1072.46 606.557 1080.54 610.682C1089.44 615.22 1093.99 621.614 1092.13 626.564C1088.61 635.433 1107.03 647.603 1124.22 647.809C1140.15 647.809 1152.57 653.997 1143.67 657.297C1138.71 659.359 1139.95 662.866 1148.85 671.529C1154.44 676.891 1157.13 681.429 1157.13 685.142C1157.13 690.917 1161.06 693.186 1171.62 693.186C1174.52 693.186 1182.59 695.248 1189.21 697.517C1200.18 701.436 1204.53 701.849 1227.51 700.817C1257.94 699.374 1264.15 697.93 1287.54 686.379C1303.48 678.541 1306.58 677.716 1319.63 677.923C1338.67 678.129 1357.3 683.698 1363.92 691.33C1368.06 695.867 1370.96 697.311 1376.96 697.311C1385.45 697.311 1388.97 693.392 1388.97 683.698C1388.97 669.672 1402.63 629.246 1407.39 629.246C1408.43 629.246 1410.91 631.308 1412.78 633.783C1415.67 638.321 1416.3 638.321 1421.47 635.433C1424.58 633.577 1429.34 629.039 1431.82 625.327C1436.17 619.139 1436.37 617.695 1433.68 613.982C1429.75 607.795 1417.74 607.176 1408.84 612.538C1399.11 618.52 1384.83 618.314 1379.24 612.126C1373.24 605.526 1372.82 603.463 1369.31 567.78C1367.44 550.042 1364.96 531.685 1363.92 527.147C1359.37 510.646 1329.98 458.875 1318.38 447.119C1311.97 440.931 1305.14 440.106 1298.93 444.85Z" fill="#FBF8F8"/>
<path d="M549.53 478.332C525.923 481.257 510.805 484.809 500.866 489.615C489.062 495.673 471.253 514.477 467.939 524.714C466.283 529.729 463.176 533.698 459.242 535.579C448.681 541.22 452.615 545.816 467.732 546.025C475.808 546.025 477.465 546.861 481.193 552.92C494.239 574.23 492.996 573.186 504.386 573.186C517.432 572.977 524.887 569.216 527.579 561.486C529.65 555.636 540.625 547.07 546.01 547.07C547.459 547.07 549.944 550.204 551.601 553.964C553.257 557.934 555.95 562.112 557.606 563.575C562.369 567.545 569.824 562.112 577.693 549.159C581.214 543.309 585.148 538.713 586.391 538.713C587.84 538.713 591.154 540.593 594.053 542.891C596.952 545.189 600.265 547.07 601.301 547.07C604.407 547.07 618.074 535.37 623.044 528.266L627.393 521.998L618.074 523.252C609.377 524.505 608.134 524.088 601.508 517.402C594.674 510.507 589.911 498.807 589.911 488.988C589.911 486.272 588.876 482.302 587.84 480.004C585.355 475.616 576.037 475.199 549.53 478.332Z" fill="#FBF8F8"/>
<path d="M671.019 518.463C667.29 519.495 660.868 522.593 656.517 525.484C650.717 529.407 646.987 530.44 641.394 529.614C634.35 528.581 633.728 528.994 632.278 534.777C631.657 538.287 628.756 542.624 625.856 544.276C623.163 546.134 620.884 549.439 620.884 551.71C620.884 557.079 612.597 561.003 605.346 559.144C602.238 558.318 597.473 555.427 594.366 552.33L588.979 546.96L583.386 553.362C577.999 559.351 573.234 571.328 573.234 578.969C573.234 585.577 568.055 582.893 554.175 569.263C538.844 553.982 533.872 552.33 533.872 562.655C533.872 572.774 528.278 576.491 507.561 581.034C497.617 583.099 488.501 585.784 487.465 586.816C486.015 588.262 486.844 591.979 489.951 598.174C492.438 603.337 494.509 608.912 494.509 610.358C494.509 612.01 490.78 616.347 486.222 619.857C481.665 623.368 477.936 627.291 477.936 628.324C477.936 629.356 480.629 634.519 484.151 640.095L490.159 649.801L485.808 653.311L481.25 656.615L486.637 664.669C491.816 672.516 503.003 679.744 509.633 679.744C513.983 679.744 517.505 684.907 516.055 688.83C513.362 695.851 522.685 691.721 541.952 677.059C552.724 669.006 562.876 661.365 564.326 660.539C568.262 658.061 603.896 675.407 614.047 684.7C622.748 692.547 627.721 704.112 631.035 724.556C632.9 737.153 636.629 742.315 666.462 774.53C690.079 800.137 714.94 822.44 726.541 828.428C730.478 830.493 739.386 833.178 746.223 834.624C765.49 838.547 772.741 842.264 783.099 853.209C788.486 858.785 795.322 863.947 798.43 864.773C809.203 867.045 812.517 869.936 818.733 881.707C823.705 891.206 826.812 894.304 835.306 898.64C842.765 902.358 846.908 906.281 850.637 912.889C856.645 923.628 864.932 947.582 867.625 961.418C869.282 970.711 869.075 972.363 864.103 979.384C858.095 988.264 853.123 1000.65 852.916 1007.68C852.916 1013.25 860.581 1017.18 864.932 1013.66C870.525 1009.12 880.263 993.014 883.577 982.895C886.478 973.809 888.549 971.331 896.422 966.788C904.502 962.038 905.745 960.386 906.366 953.571C906.988 946.343 906.159 944.691 894.35 933.747L881.713 921.563L885.027 914.128C886.685 909.998 892.9 900.499 898.701 893.271C911.131 877.783 914.653 876.957 930.812 886.044C940.757 891.826 952.773 903.39 955.051 909.379C955.673 911.444 957.123 911.031 960.645 907.727C964.996 903.597 964.996 902.977 961.888 896.988C957.123 887.696 937.235 872.414 905.952 854.035C873.426 834.83 861.824 826.983 860.167 822.646C859.545 820.994 860.996 817.484 863.689 814.592C870.94 806.952 866.382 804.68 842.972 804.68C823.498 804.68 822.255 804.474 810.653 797.452C794.908 788.16 782.27 772.052 774.191 750.989C760.103 714.643 753.888 706.59 732.135 696.058C722.812 691.515 722.398 691.515 719.497 695.232C714.318 702.253 710.589 697.71 709.139 682.429C705.41 645.257 705.41 641.127 707.689 639.682C710.589 637.823 710.589 627.704 707.482 617.586C703.752 604.782 706.653 601.065 728.613 591.979C739.179 587.642 749.123 582.686 750.573 581.034C754.302 577.317 754.302 557.905 750.573 548.819C748.087 542.83 746.015 541.385 733.585 537.461C720.119 533.538 716.39 531.473 703.338 522.18C697.123 517.843 680.756 515.985 671.019 518.463Z" fill="#FBF8F8"/>
<path d="M846.684 533.65C832.565 538.237 808.48 543.032 782.319 546.16C762.387 548.87 758.858 558.253 769.862 580.145C779.62 599.743 789.794 605.998 797.684 597.241C802.459 592.029 807.235 592.029 817.616 597.45C828.205 602.662 830.696 601.828 830.696 592.863C830.904 586.816 831.942 585.357 838.794 582.229C842.946 580.145 846.476 577.226 846.684 575.766C846.684 574.515 846.891 570.137 847.099 566.175C847.514 559.92 849.175 557.627 859.556 549.704C884.887 530.314 879.281 523.225 846.684 533.65Z" fill="#FBF8F8"/>
<path d="M863.801 553.942C855.755 557.67 852.042 564.091 853.692 571.961C855.137 579.003 853.486 584.181 849.773 584.181C848.328 584.181 844.615 588.323 841.52 593.708C833.268 607.791 819.446 610.691 811.193 600.128C808.305 596.4 807.273 596.193 804.592 598.471C799.434 602.821 800.672 610.07 808.511 619.597C817.589 630.367 819.033 632.852 820.683 642.379C821.509 646.936 825.428 653.771 830.38 659.57C837.807 668.061 838.632 669.925 837.601 676.346C836.363 682.766 836.982 684.423 845.234 692.501C858.644 706.17 870.816 712.384 887.114 714.455C894.954 715.49 901.555 716.112 901.555 715.904C901.762 715.904 893.51 703.478 882.988 688.566C863.183 660.191 850.804 637.616 850.804 629.953C850.804 627.467 851.836 623.532 852.867 621.254C854.93 617.733 857.406 617.319 877.211 617.319C913.934 617.319 965.098 622.911 977.27 628.089C983.046 630.574 987.998 631.817 988.41 630.781C991.711 620.425 996.663 614.212 1001.41 614.212C1008.63 614.212 1009.45 620.84 1002.44 623.532C997.901 625.189 997.488 626.225 999.345 629.538C1000.38 631.817 1002.44 634.302 1003.47 634.923C1006.57 636.787 1005.74 648.8 1002.44 653.356C997.075 660.398 998.726 667.233 1008.22 676.967L1016.88 685.873L1009.66 691.879L1002.44 697.679L1008.22 703.063C1012.96 707.413 1013.58 709.07 1011.72 712.591C1010.49 715.076 1007.39 716.733 1004.5 716.733C1001.2 716.733 997.694 719.218 993.981 723.982C990.267 728.953 986.966 731.231 984.284 730.817C980.983 730.402 979.539 731.852 978.301 737.237C977.064 741.586 974.794 744.486 972.112 745.314C968.605 746.143 968.192 747.386 969.224 754.635C970.874 764.162 984.284 785.702 989.236 786.737C991.299 787.151 996.663 783.216 1001.61 777.624C1006.57 772.446 1012.75 767.268 1015.23 766.233C1025.75 762.298 1050.1 775.967 1052.37 787.358C1052.98 790.879 1054.84 794.193 1056.49 794.815C1058.14 795.436 1065.57 793.158 1073.2 789.637C1083.31 784.873 1092.39 782.595 1106.62 780.938C1129.94 778.453 1133.65 775.553 1132 762.298C1130.97 754.635 1131.59 753.392 1140.46 744.693C1150.57 734.545 1151.81 731.852 1146.85 729.988C1141.9 728.124 1132 711.141 1129.32 700.371C1127.25 691.879 1127.46 689.187 1130.14 683.802C1133.86 676.76 1134.48 659.363 1131.38 654.599C1129.52 651.907 1128.49 652.321 1124.57 657.084C1121.89 660.398 1119.21 662.884 1118.59 662.884C1117.76 662.884 1111.16 658.741 1103.94 653.563C1094.86 647.35 1089.91 642.172 1088.26 637.616C1083.11 623.946 1079.39 618.147 1070.93 611.934C1064.74 607.17 1061.24 602.614 1058.76 595.365C1056.7 589.358 1051.75 581.902 1046.8 576.932C1039.37 569.683 1037.31 568.647 1028.64 568.854C1016.26 568.854 996.869 573.204 991.918 576.932C988.204 579.624 988.204 580.038 991.711 593.708C994.806 605.72 994.806 608.206 992.537 610.691C987.585 615.662 982.84 608.413 982.84 595.779C982.84 585.216 980.365 580.038 975.413 580.038C974.175 580.038 972.525 581.902 971.906 584.181C969.43 593.708 944.261 586.666 908.57 566.576C881.75 551.664 873.91 549.386 863.801 553.942Z" fill="#FBF8F8"/>
<path d="M855.451 620.532C852.529 623.416 854.199 632.068 860.043 643.604C870.478 663.793 894.688 697.784 907.001 709.32C913.471 715.5 918.689 722.092 918.689 723.946C918.689 730.745 930.794 744.341 946.029 755.053C954.378 760.615 962.308 765.354 963.561 765.354C965.439 765.354 965.856 762.675 965.23 756.289C963.561 741.457 976.918 721.886 986.31 725.389C989.023 726.419 989.44 725.182 989.023 718.59C988.605 711.174 989.023 710.762 994.867 710.144C1006.55 709.114 1007.18 708.29 1002.17 700.668C999.249 695.724 997.997 690.78 998.414 685.011C998.623 678.831 997.788 675.741 995.493 674.505C988.397 670.591 989.44 652.051 996.954 652.051C1000.29 652.051 1003.42 643.398 1001.13 639.896C1000.29 638.454 996.536 638.042 991.945 638.866C986.101 639.69 981.718 638.866 975.457 635.776C964.396 630.214 953.752 628.154 918.063 624.24C879.87 620.12 881.331 620.12 878.826 627.33C877.574 630.626 876.113 633.51 875.696 633.51C875.07 633.51 871.939 630.214 868.391 626.3C862.13 619.296 858.373 617.648 855.451 620.532Z" fill="#FBF8F8"/>
<path d="M1138.65 684.189C1134.91 687.075 1133.25 690.372 1133.25 694.907C1133.25 703.563 1144.46 722.732 1152.14 726.854C1161.9 732.419 1159.62 745.816 1148.61 745.816C1142.18 745.816 1140.1 749.32 1138.65 764.366C1136.99 781.061 1139.48 789.305 1148.82 799.611C1156.09 807.649 1156.92 809.916 1156.09 820.428C1155.88 824.756 1157.13 826.817 1161.07 828.466C1165.43 830.527 1169.79 830.115 1184.12 826.611C1206.96 820.84 1214.85 820.84 1231.88 827.23C1249.74 834.031 1268.01 834.443 1281.3 828.672C1288.57 825.581 1291.89 822.283 1296.25 814.245C1305.59 797.344 1326.15 790.13 1340.89 798.58C1347.74 802.702 1352.52 801.466 1355.63 794.458C1358.96 787.45 1353.97 777.763 1347.12 777.763C1340.89 777.557 1340.89 772.404 1347.33 764.366C1351.07 759.832 1356.26 749.526 1364.77 729.739C1366.85 725.205 1370.79 721.701 1377.02 718.61C1390.31 712.22 1391.56 704.8 1379.51 704.594C1377.23 704.594 1366.02 700.266 1354.6 694.701C1335.29 685.838 1332.38 685.014 1318.05 685.014C1303.31 685.014 1301.65 685.426 1283.79 695.319L1265.1 705.625L1228.76 705.418C1174.78 705.212 1151.31 700.472 1150.48 690.166C1150.48 687.281 1150.28 683.777 1150.07 682.334C1149.86 678.624 1144.88 679.243 1138.65 684.189Z" fill="#FBF8F8"/>
<path d="M1014.14 772.671C1005.51 775.571 1003.04 784.063 1006.94 797.318C1011.06 810.781 1011.26 848.683 1007.36 859.66C1005.09 865.874 1005.09 868.566 1007.36 875.194C1009 879.543 1010.24 885.55 1010.24 888.656C1010.24 892.591 1012.29 895.491 1017.02 898.805C1026.07 905.018 1030.8 911.232 1030.8 916.617C1030.8 919.309 1031.63 921.381 1032.65 921.381C1035.95 921.381 1048.49 905.226 1055.49 892.177C1058.98 885.342 1063.3 879.129 1064.95 878.508C1069.47 876.851 1068.44 872.915 1059.19 854.896C1050.55 838.534 1050.34 837.499 1050.34 818.237C1050.34 803.739 1049.31 796.49 1046.85 791.933C1039.65 778.471 1024.02 769.15 1014.14 772.671Z" fill="#FBF8F8"/>
<path d="M1084.12 791.013C1081.64 793.494 1078.96 795.149 1078.34 794.322C1075.24 791.426 1065.52 799.492 1060.15 809.418C1053.33 822.033 1052.71 830.925 1057.67 841.886C1061.8 851.192 1069.24 856.362 1079.58 856.982C1093.22 858.016 1097.56 856.982 1107.27 850.364C1113.26 846.642 1121.53 843.126 1127.94 842.299C1146.95 839.197 1153.57 822.86 1143.03 804.455C1136.21 792.047 1127.52 788.118 1106.44 787.084C1089.7 786.256 1088.05 786.463 1084.12 791.013Z" fill="#FBF8F8"/>
<path d="M1314.48 802.692C1305.42 806.632 1300.69 814.305 1302.54 822.394C1303.57 826.749 1302.95 830.482 1300.69 833.8C1293.69 844.584 1298.83 866.153 1309.74 872.167C1316.13 875.693 1321.68 873.619 1334.04 863.042C1347.01 851.843 1354.21 849.562 1384.47 847.695L1407.53 846.036L1394.15 839.607C1378.71 832.141 1374.38 828.615 1366.15 817.209C1358.53 806.632 1357.09 805.595 1351.74 806.839C1349.48 807.254 1344.12 806.01 1340.01 803.728C1331.15 798.958 1323.74 798.544 1314.48 802.692Z" fill="#FBF8F8"/>
<path d="M1192.09 832.325C1186.89 833.98 1175.88 836.049 1167.36 837.084C1155.52 838.532 1151.16 839.981 1148.66 843.291C1146.17 846.395 1141.6 848.05 1131.21 849.498C1117.91 851.361 1106.07 856.533 1100.66 863.154C1099 865.017 1094.43 866.258 1089.24 866.258C1076.98 866.258 1073.65 867.913 1073.65 873.707C1073.65 876.396 1070.95 881.569 1067.63 885.5C1064.3 889.225 1060.77 895.432 1059.73 899.363C1058.28 904.329 1056.41 906.812 1052.67 907.64C1048.09 908.881 1047.68 909.916 1047.89 920.468C1048.3 938.676 1059.94 956.056 1074.07 959.366L1080.92 961.022L1074.28 962.47C1064.09 964.746 1062.43 967.85 1066.38 977.161C1071.37 989.161 1074.07 990.196 1099 990.403C1111.26 990.403 1126.22 991.437 1132.25 992.679C1146.38 995.575 1178.58 1011.09 1189.39 1020.4C1193.96 1024.34 1198.32 1027.03 1198.95 1026.4C1201.02 1024.34 1196.45 1010.89 1191.47 1004.27C1186.27 997.644 1177.13 990.816 1151.57 974.678L1139.1 967.022L1145.96 965.16C1152.82 963.298 1152.82 963.298 1149.49 958.125C1147.62 955.228 1146.38 950.883 1146.79 948.4C1147.42 944.469 1148.66 943.848 1156.35 944.262C1163.62 944.676 1165.29 944.055 1164.66 941.365C1164.25 939.503 1161.13 937.227 1157.39 936.193C1150.95 934.538 1150.32 933.503 1147.42 921.295C1146.79 917.778 1144.3 912.605 1142.01 909.502C1139.94 906.398 1138.07 901.846 1138.07 899.57C1138.07 894.397 1142.43 883.638 1147 877.638C1150.12 873.707 1150.32 873.707 1151.78 879.707C1153.86 888.811 1158.64 893.156 1166.32 893.156C1179 893.156 1183.15 890.259 1184.61 880.121C1185.44 874.948 1187.93 869.155 1190.22 867.293C1195 862.741 1227.62 856.12 1244.24 855.913C1250.48 855.913 1260.66 857.361 1266.68 859.223C1272.71 860.878 1281.02 862.12 1285.18 861.706C1292.45 861.085 1292.87 860.671 1292.45 853.844C1292.24 849.912 1290.79 845.774 1288.92 844.326C1287.05 843.084 1277.49 841.429 1267.52 840.808C1257.33 839.981 1241.33 837.084 1231.78 834.187C1211.83 828.394 1205.39 827.98 1192.09 832.325Z" fill="#FBF8F8"/>
<path d="M1103.55 999.989C1101.25 1001.24 1094.35 1006.01 1088.28 1010.58L1077.41 1018.89L1089.96 1031.98C1102.09 1044.45 1104.81 1049.85 1100.41 1052.55C1097.28 1054.42 1097.9 1065.22 1101.25 1067.92C1103.55 1070 1105.43 1070 1108.78 1068.13C1115.26 1064.6 1118.4 1066.68 1124.47 1078.52C1127.4 1084.13 1130.53 1088.9 1131.37 1088.9C1132.41 1088.9 1134.72 1085.37 1136.81 1081.22L1140.57 1073.32L1144.55 1078.31C1146.85 1081.01 1149.77 1082.67 1151.66 1081.84C1156.68 1079.97 1155.42 1067.09 1148.31 1051.09C1144.75 1043.2 1142.45 1036.14 1143.08 1035.31C1143.71 1034.68 1148.94 1036.34 1154.38 1038.84C1166.09 1044.24 1176.34 1044.03 1177.38 1038.21C1178.01 1035.1 1177.38 1034.47 1173.62 1035.51C1170.27 1036.34 1166.72 1034.68 1160.44 1028.87C1147.89 1017.85 1138.48 1011.21 1126.56 1005.39C1112.34 998.119 1108.36 997.288 1103.55 999.989Z" fill="#FBF8F8"/>
</svg>
